<svg width="300" height="234" viewBox="0 0 300 234" xmlns="http://www.w3.org/2000/svg"><g fill-rule="nonzero" fill="none"><circle cx="4.113" cy="3.871" r="3.024" transform="translate(240.726 63.113)" fill="#FFD18F"/><circle cx="3.266" cy="3.992" r="3.024" transform="translate(233.468 77.629)" fill="#FFD18F"/><path d="M243.75 69.766l-5.565 9.557" fill="#F4F4F4"/><circle cx="2.661" cy="2.903" r="2.419" transform="translate(241.935 63.113)" fill="#F9E0BD"/><circle cx="3.266" cy="3.024" r="2.419" transform="translate(233.468 77.629)" fill="#F9E0BD"/><path d="M247.137 64.202c-.726-.605-1.693-.968-2.661-.847-.968.12-1.815.484-2.42 1.21-.604.725-.967 1.693-.846 2.66.12.969.484 1.815 1.21 2.42.12.121.241.242.362.242l-4.838 8.347c-.484-.242-1.09-.242-1.573-.242-.968.12-1.815.484-2.42 1.21-1.33 1.451-1.088 3.75.364 5.08a3.617 3.617 0 0 0 2.298.847c.968 0 2.056-.484 2.782-1.21.605-.725.968-1.693.847-2.66-.121-.969-.484-1.815-1.21-2.42l4.839-8.468c.242 0 .484.12.847.12.967 0 2.056-.483 2.782-1.209 1.33-1.451 1.21-3.75-.363-5.08zM239.153 81.5c0 .605-.12 1.21-.605 1.694-.846.967-2.419 1.088-3.387.241-.967-.846-1.088-2.419-.242-3.387.484-.604 1.09-.846 1.815-.846.605 0 1.089.242 1.572.604.484.484.847.968.847 1.694zm7.5-12.944c-.847.968-2.42 1.09-3.387.242-.484-.363-.726-.967-.847-1.693 0-.605.121-1.21.605-1.694.363-.484.968-.726 1.694-.846h.242c.605 0 1.088.241 1.572.604.847.847.968 2.299.121 3.387z" fill="#4E5866"/><path d="M231.411 45.573L200.685 34.08c-2.903-1.09-4.354-4.355-3.266-7.258l8.347-22.38c1.089-2.903 4.355-4.354 7.258-3.266l30.605 11.371c2.903 1.09 4.355 4.355 3.266 7.258l-8.347 22.38c-.967 2.903-4.233 4.475-7.137 3.387z" fill="#9BBFEA"/><path d="M231.774 43.395l-30.605-11.37c-2.903-1.09-4.354-4.356-3.266-7.259l7.5-20.08c1.089-2.904 4.355-4.355 7.258-3.267l30.605 11.371c2.903 1.089 4.355 4.355 3.266 7.258l-7.5 20.081c-1.088 2.903-4.355 4.355-7.258 3.266z" fill="#B4D2FC"/><path d="M207.944 34.323l-6.654-2.42c-2.903-1.088-4.355-4.355-3.266-7.258l7.5-20.08c1.089-2.904 4.355-4.355 7.258-3.267l26.734 9.92c2.903 1.088 4.355 4.355 3.266 7.258-5.201 13.911-20.806 21.048-34.838 15.847z" fill="#D2E5FC"/><path d="M243.508 17.145l1.452-3.87c.12-.364 0-.606-.363-.727-.363-.12-.605 0-.726.363l-1.452 3.871c-.12.363 0 .605.363.726.242.121.605 0 .726-.363zM241.694 13.758l.604-1.573c.121-.362 0-.604-.363-.725-.362-.121-.604 0-.725.363l-.605 1.572c-.121.363 0 .605.363.726.363.12.605 0 .726-.363zM240.363 16.903l.605-1.572c.12-.363 0-.605-.363-.726s-.605 0-.726.363l-.605 1.572c-.12.363 0 .605.363.726.242.121.605 0 .726-.363z" fill="#4E5866"/><path d="M233.347 46.42a6.85 6.85 0 0 1-2.178-.364l-30.604-11.37c-1.573-.605-2.783-1.694-3.509-3.267-.725-1.572-.725-3.266-.12-4.838l8.346-22.38c.605-1.572 1.694-2.782 3.266-3.507 1.573-.726 3.267-.726 4.84-.121l30.604 11.37c3.266 1.21 4.839 4.84 3.629 7.984l-8.347 22.38c-.968 2.66-3.387 4.112-5.927 4.112zm-22.38-45.122c-.725 0-1.45.121-2.056.484-1.21.605-2.177 1.573-2.661 2.783l-8.347 22.379c-.484 1.21-.363 2.66.121 3.87.605 1.21 1.573 2.178 2.782 2.662l30.605 11.37c2.54.969 5.565-.362 6.533-2.902l8.346-22.38c.968-2.66-.363-5.564-3.024-6.532l-30.605-11.37c-.484-.243-1.088-.364-1.693-.364z" fill="#4E5866"/><path fill="#4E5866" d="M227.661 22.347l-10.282 4.597-2.42-4.718-11.007 4.718.483 1.088 9.92-4.234 3.75 7.5 1.089-.604-1.331-2.662 9.193-4.113 6.29 14.88 1.09-.484z"/><g transform="translate(209.274 2.629)"><circle fill="#EFEFEF" cx="11.25" cy="14.274" r="3.387"/><circle fill="#FFF" cx="10.766" cy="13.427" r="2.419"/><path d="M6.532 4.113c-.484 1.089-3.145 1.089-4.717 0C1.089 3.629 0 2.54.242 1.693.605.606 3.145.122 4.839 1.09c1.088.726 2.056 2.177 1.693 3.024z" fill="#E1EDF9"/><path d="M11.25 18.266c-.484 0-.968-.12-1.452-.242-2.056-.726-3.145-3.145-2.419-5.201a4.244 4.244 0 0 1 2.056-2.299c.968-.484 2.057-.484 3.146-.12a4.244 4.244 0 0 1 2.298 2.056c.484.967.484 2.056.121 3.145a3.992 3.992 0 0 1-3.75 2.661zm0-6.895c-.363 0-.847.12-1.21.242-.725.363-1.21.847-1.451 1.572-.605 1.452.242 3.146 1.693 3.63 1.452.604 3.145-.242 3.63-1.694.241-.726.241-1.452-.122-2.177-.363-.726-.846-1.21-1.572-1.452-.363 0-.726-.121-.968-.121z" fill="#4E5866"/></g><g fill="#4E5866"><path d="M189.435 34.323h-.241c-1.815-.121-3.509-.968-4.597-2.299l-7.38-9.072c-1.45-1.815-1.33-4.355.243-6.049a4.845 4.845 0 0 1 3.508-1.451c1.33 0 2.54.725 3.387 1.693l5.08 6.29c.847 1.09.726 2.662-.362 3.509-.484.483-1.21.604-1.815.604-.726-.12-1.33-.363-1.693-.967l-3.388-4.113.968-.726 3.387 4.113c.242.242.484.484.847.484s.726-.121.968-.242c.605-.484.605-1.33.12-1.815l-5.08-6.29c-.605-.726-1.572-1.21-2.54-1.21s-1.936.363-2.54 1.089c-1.21 1.21-1.21 3.145-.122 4.476l7.38 9.072c.967 1.09 2.298 1.815 3.75 1.815 1.451 0 2.903-.484 3.87-1.573 1.815-1.935 1.936-4.838.242-6.774l-6.29-7.62.968-.727 6.29 7.621c2.057 2.54 1.936 6.17-.363 8.468-1.21.968-2.903 1.694-4.597 1.694z"/></g><g><path fill="#B3D6D5" d="M60.242 17.871l-13.548 61.33 76.21-47.54z"/><path fill="#C7EDEC" d="M60.242 17.387L47.419 75.935l73.065-44.879z"/><path d="M60.242 17.871L47.419 76.419l20.565-12.58C87.097 51.984 82.258 22.83 60.242 17.87z" fill="#DFF4F3"/><path d="M63.629 24.282c-.12 1.33-1.21 2.783-2.177 2.662-.847-.121-1.452-1.815-1.21-3.146.242-1.21 1.452-2.419 2.298-2.177.847.12 1.21 1.694 1.089 2.661z" fill="#F2FCFB"/><path fill="#FFF" d="M70.161 33.355l-4.717 21.048 26.008-16.33z"/><path d="M64.718 55.492l5.08-22.621 22.863 5.08-27.943 17.54zm5.806-21.532L66.17 53.435l23.952-15.12-19.597-4.355z" fill="#4E5866"/><path d="M80.444 58.032c.967-.605 2.056-1.088 3.266-1.33l.242-.242C90 52.347 94.96 47.87 101.734 44.605c4.234-2.057 8.105-5.08 12.339-7.016H105c-14.032.12-25.887 9.92-28.79 23.105 0 0 .12 0 .12-.121 1.573-.605 2.662-1.573 4.114-2.54z" fill="#B3D6D5"/><path d="M65.323 42.67l.846-4.114c.121-.362-.12-.604-.484-.725-.362-.121-.604.12-.725.484l-.847 4.112c-.121.363.12.605.484.726.363.121.605-.12.726-.484zM56.371 58.274l.847-4.113c.12-.363-.121-.605-.484-.726-.363-.12-.605.121-.726.484l-.847 4.113c-.12.363.121.605.484.726.363 0 .726-.242.726-.484zM57.823 52.226l.362-1.694c.121-.363-.12-.605-.483-.726-.363-.12-.605.121-.726.484l-.363 1.694c-.121.363.12.605.484.726.242 0 .605-.121.726-.484z" fill="#4E5866"/><path d="M59.879 17.266L45.968 80.17l78.266-48.629-64.355-14.274zm.726 1.089l10.766 2.42-1.21 5.322.968.242 1.21-5.323 7.137 1.573-.726 3.266.968.242.726-3.266 6.774 1.451-1.21 5.323.968.242 1.21-5.323 6.774 1.452-.726 3.266.968.242.725-3.266 6.896 1.572-1.21 5.323.968.242 1.21-5.323 7.136 1.573-.846 3.145.967.242.726-3.266 9.92 2.177-74.275 46.21 13.186-59.758z" fill="#4E5866"/></g><g><path d="M111.17 45.815h75.846c16.089 0 29.274 13.306 29.274 29.758v105.725c0 14.637-11.613 26.492-26.008 26.492h-96.29c-6.653 0-12.097-5.564-12.097-12.338V75.572c0-16.451 13.065-29.757 29.274-29.757z" fill="#F4F4F4"/><path d="M107.54 40.371h78.387c16.694 0 30.242 13.548 30.242 30.242v107.056c0 14.88-12.096 26.855-26.854 26.855H89.879c-6.895 0-12.58-5.564-12.58-12.58V70.492c0-16.694 13.548-30.121 30.241-30.121z" fill="#FFCB78"/><path d="M107.056 40.492h68.226c15 0 27.218 12.218 27.218 27.218v6.895c0 62.903-50.927 113.83-113.83 113.83-6.291 0-11.25-5.08-11.25-11.25V70.13c-.122-16.33 13.185-29.637 29.636-29.637z" fill="#FFD49C"/><path d="M94.355 179.726V43.396c-2.42 1.088-6.17 3.507-9.557 7.136-6.41 6.895-7.379 15.121-7.5 17.783v123.75l17.057-12.34z" fill="#FFC166"/><path d="M94.355 100.976c0-19.234.12-38.347.12-57.58-2.419.967-6.169 3.023-9.677 6.773-5.564 6.049-6.774 12.944-7.137 15.605-.12 16.936-.242 33.871-.363 50.807 10.767-3.63 17.057-9.436 17.057-15.605z" fill="#FFD49C" opacity=".55"/><path d="M216.17 102.548v23.347c0 2.178-.364 3.871-.364 3.871h-26.733c-8.105 0-14.758-7.016-14.758-15.605 0-8.588 6.532-15.605 14.758-15.605h23.467c1.936.121 3.63 1.936 3.63 3.992z" fill="#E5AF7A"/><path d="M216.17 152.508c0 2.177-.243 11.008-7.138 18.63-.242.362-.605.604-.847.967-5.08 5.08-11.975 7.62-19.112 7.62H89.758c-6.895 0-12.339 5.565-12.339 12.34 0 6.895 5.565 12.338 12.34 12.338h102.096c13.427 0 24.314-10.887 24.314-24.314v-27.58z" fill="#FFF"/><path d="M215.565 157.952v16.935c0 13.428-10.888 24.315-24.315 24.315H89.153c-5.443 0-10.04-3.508-11.734-8.468v1.089c0 6.895 5.565 12.338 12.34 12.338h102.096c13.427 0 24.314-10.887 24.314-24.314v-27.702c0 1.089 0 3.145-.604 5.807z" fill="#EAEAEA"/><path d="M180.121 75.21h-60.726c-3.024 0-5.564-2.54-5.564-5.565v-.484c0-3.024 2.54-5.564 5.564-5.564h60.726c3.024 0 5.564 2.54 5.564 5.564v.363c0 3.145-2.54 5.686-5.564 5.686z" fill="#FFF"/><path d="M184.96 66.379v1.815c0 3.024-2.54 5.564-5.565 5.564h-59.274c-3.024 0-5.565-2.54-5.565-5.564v-1.21-.605c-.483.847-.846 1.815-.846 2.782v.363c0 3.024 2.54 5.565 5.564 5.565H180c3.024 0 5.565-2.54 5.565-5.565v-.363c.12-.967-.121-1.935-.605-2.782z" fill="#E5E5E5"/><path d="M180.121 75.815h-60.726c-3.387 0-6.17-2.783-6.17-6.17v-.484c0-3.387 2.783-6.17 6.17-6.17h60.726c3.387 0 6.17 2.783 6.17 6.17v.363c0 3.508-2.783 6.29-6.17 6.29zm-60.726-11.613c-2.782 0-4.96 2.298-4.96 4.96v.362c0 2.782 2.299 4.96 4.96 4.96h60.726c2.782 0 4.96-2.299 4.96-4.96v-.363c0-2.782-2.299-4.96-4.96-4.96h-60.726z" fill="#4E5866"/><path d="M180.121 100.129h-60.726c-3.024 0-5.564-2.54-5.564-5.564v-.363c0-3.025 2.54-5.565 5.564-5.565h60.726c3.024 0 5.564 2.54 5.564 5.565v.363c0 3.024-2.54 5.564-5.564 5.564z" fill="#FFF"/><path d="M184.96 91.298v1.815c0 3.024-2.54 5.564-5.565 5.564h-59.274c-3.024 0-5.565-2.54-5.565-5.564v-1.21-.605c-.483.847-.846 1.815-.846 2.783v.484c0 3.024 2.54 5.564 5.564 5.564H180c3.024 0 5.565-2.54 5.565-5.564v-.363a4.687 4.687 0 0 0-.605-2.904z" fill="#E5E5E5"/><path d="M180.121 100.734h-60.726c-3.387 0-6.17-2.782-6.17-6.17v-.362c0-3.387 2.783-6.17 6.17-6.17h60.726c3.387 0 6.17 2.783 6.17 6.17v.363c0 3.387-2.783 6.169-6.17 6.169zM119.395 89.12c-2.782 0-4.96 2.298-4.96 4.96v.484c0 2.782 2.299 4.96 4.96 4.96h60.726c2.782 0 4.96-2.3 4.96-4.96v-.363c0-2.783-2.299-4.96-4.96-4.96h-60.726v-.121z" fill="#4E5866"/><g><path d="M162.339 126.379h-43.065c-3.024 0-5.564-2.54-5.564-5.564v-.363c0-3.025 2.54-5.565 5.564-5.565h43.065c3.024 0 5.564 2.54 5.564 5.565v.363c.121 3.024-2.42 5.564-5.564 5.564z" fill="#FFF"/><path d="M162.339 124.565h-43.065c-2.903 0-5.201-2.178-5.564-4.96 0 .242-.121.484-.121.605v.363c0 3.024 2.54 5.564 5.564 5.564h43.065c3.024 0 5.564-2.54 5.564-5.564v-.363c0-.242 0-.484-.12-.605-.122 2.782-2.42 4.96-5.323 4.96z" fill="#E5E5E5"/><path d="M162.339 126.984h-43.065c-3.387 0-6.17-2.782-6.17-6.17v-.362c0-3.387 2.783-6.17 6.17-6.17h43.065c3.387 0 6.17 2.783 6.17 6.17v.363c.12 3.387-2.662 6.169-6.17 6.169zm-42.944-11.613c-2.782 0-4.96 2.298-4.96 4.96v.363c0 2.782 2.299 4.96 4.96 4.96h43.065c2.782 0 4.96-2.3 4.96-4.96v-.363c0-2.783-2.299-4.96-4.96-4.96h-43.065z" fill="#4E5866"/></g><g><path fill="#F4F4F4" d="M101.25 195.815v22.016l7.742-5.323 7.62 5.323v-22.016z"/><path fill="#F98282" d="M101.25 193.032v22.016l7.742-5.322 7.62 5.322v-22.016z"/><path d="M101.008 192.911v12.702c8.83-1.573 15-6.17 15.242-11.613v-1.089h-15.242z" fill="#FCA7A7" opacity=".55"/></g><g><path d="M221.25 100.008v23.347c0 2.177-1.694 3.87-3.871 3.87h-24.798c-8.59 0-15.605-7.015-15.605-15.604 0-8.589 7.016-15.605 15.605-15.605h24.798c2.177.121 3.871 1.815 3.871 3.992z" fill="#E06E6E"/><path d="M220.645 99.766c0 15-12.218 27.218-27.218 27.218h-1.451c-8.589 0-15.605-7.016-15.605-15.605s7.016-15.605 15.605-15.605h24.798c2.178 0 3.871 1.815 3.871 3.992z" fill="#F98282"/><path d="M191.008 98.073c.484.846-3.266 3.87-5.08 5.201-.363.242-5.202 3.63-5.928 2.903-.605-.604 1.21-3.629 3.629-5.564 2.903-2.298 6.895-3.387 7.38-2.54z" fill="#F99898"/><path fill="#EFAB50" d="M77.903 163.395l7.742 16.452 3.387-.726-11.129-22.984z"/><path d="M89.516 180.33l5.444 12.097h-3.63l-5.322-11.492c.363-.241.847-.483 1.573-.604.846-.121 1.572 0 1.935 0zM96.774 196.782a44.647 44.647 0 0 0-1.572-3.508c-.242 0-.605-.12-.968-.12h-.968l.363-.122h-.847c-.726-.12-.847-.242-1.088-.12-.605.12-.484 1.088-.847 2.056-.484 1.21-1.452 1.572-1.936 2.298-1.088 1.815-1.935 3.75-2.298 5.807-.242.846-.121 1.088 0 1.088.242.121.605-.363 1.21-.12.12 0 .12.12.362.12.121 0 .363.121.605.121.484.121.847 0 1.089 0l5.202-2.42c.967-.483 1.693-1.209 2.056-2.177.121-.967 0-2.056-.363-2.903z" fill="#EAEAEA"/><path d="M121.815 199.323h-4.476c-.363 0-.605-.242-.605-.605s.242-.605.605-.605h4.476c.362 0 .604.242.604.605 0 .242-.242.605-.604.605zM126.411 199.323h-2.177c-.363 0-.605-.242-.605-.605s.242-.605.605-.605h2.177c.363 0 .605.242.605.605 0 .242-.363.605-.605.605zM158.226 129.645c.363 0 .726-.363.726-.726V126.5c0-.363-.363-.726-.726-.726s-.726.363-.726.726v2.42c-.121.362.242.725.726.725zM155.08 132.67c.364 0 .726-.364.726-.726v-5.323c0-.363-.362-.726-.725-.726s-.726.363-.726.726v5.323c0 .362.363.725.726.725zM125.685 78.718c.363 0 .726-.363.726-.726v-2.42c0-.362-.363-.725-.726-.725-.362 0-.725.363-.725.726v2.419c0 .363.363.726.725.726zM122.661 81.742c.363 0 .726-.363.726-.726v-5.322c0-.363-.363-.726-.726-.726s-.726.363-.726.726v5.322c-.12.363.242.726.726.726zM81.17 78.476c.362 0 .725-.363.725-.726v-8.347c0-.363-.363-.726-.726-.726s-.725.363-.725.726v8.226c-.121.484.241.847.725.847zM89.758 130.129c.363 0 .726-.363.726-.726v-8.347c0-.362-.363-.725-.726-.725s-.726.363-.726.725v8.347c0 .363.363.726.726.726zM190.645 180.21c.363 0 .726-.363.726-.726v-5.686c0-.363-.363-.725-.726-.725s-.726.362-.726.725v5.686c0 .484.363.726.726.726zM187.016 180.21c.363 0 .726-.363.726-.726v-2.54c0-.363-.363-.726-.726-.726s-.726.363-.726.726v2.54c-.12.484.242.726.726.726zM89.758 135.694c.363 0 .726-.363.726-.726v-2.299c0-.363-.363-.725-.726-.725s-.726.362-.726.725v2.299c0 .363.363.726.726.726zM81.17 158.435c.362 0 .725-.362.725-.725v-2.299c0-.363-.363-.726-.726-.726s-.725.363-.725.726v2.299c-.121.363.241.725.725.725zM146.25 103.516c.363 0 .726-.363.726-.726v-2.419c0-.363-.363-.726-.726-.726s-.726.363-.726.726v2.42c0 .362.363.725.726.725zM128.105 103.516c.363 0 .726-.363.726-.726v-2.419c0-.363-.363-.726-.726-.726s-.726.363-.726.726v2.42c0 .362.363.725.726.725zM106.089 196.298c-.363 0-.605-.242-.605-.604v-2.662c0-.363.242-.605.605-.605s.605.242.605.605v2.662c0 .362-.242.604-.605.604zM106.089 201.258c-.363 0-.605-.242-.605-.605v-2.661c0-.363.242-.605.605-.605s.605.242.605.605v2.661c0 .242-.242.605-.605.605zM103.79 198.234c-.363 0-.605-.242-.605-.605v-4.597c0-.363.242-.605.605-.605s.605.242.605.605v4.597c0 .242-.242.605-.605.605zM211.33 99.766c.364 0 .726-.363.726-.726v-2.419c0-.363-.362-.726-.725-.726s-.726.363-.726.726v2.42c-.121.362.242.725.726.725zM211.33 102.065c.364 0 .726-.363.726-.726s-.362-.726-.725-.726-.726.363-.726.726c-.121.484.242.726.726.726zM207.944 101.823c.362 0 .725-.363.725-.726V96.62c0-.363-.363-.726-.725-.726-.363 0-.726.363-.726.726v4.476c-.121.363.242.726.726.726z" fill="#4E5866"/><path d="M217.379 95.532h-.605v-25.04c0-16.936-13.79-30.847-30.847-30.847H107.54c-4.717 0-9.193 1.089-13.185 2.903l-.242.121c-2.298.968-6.17 3.387-9.678 7.258-6.048 6.533-7.379 14.154-7.62 18.267v123.991c0 7.138 5.806 13.065 13.064 13.065h10.887v11.008l8.347-5.806 8.226 5.806V205.25h74.637c13.79 0 24.92-11.25 24.92-24.92v-52.257h.604a4.465 4.465 0 0 0 4.476-4.476v-23.589c-.121-2.42-2.057-4.476-4.597-4.476zM85.282 50.895c3.024-3.266 6.29-5.443 8.468-6.532v134.879h-3.992c-5.202 0-9.677 3.145-11.855 7.62V68.557c.363-4.112 1.573-11.491 7.38-17.66zm30.726 154.234v8.71l-6.895-4.96-7.137 4.96v-20.202h14.032v11.492zm99.557-24.92c0 13.065-10.646 23.71-23.71 23.71h-74.637v-10.282h71.855c7.5 0 14.516-2.903 19.475-7.863l.968-.968a27.517 27.517 0 0 0 6.049-10.887v6.29zm0-14.394c0 3.145-.726 11.25-6.896 18.145-.242.363-.604.605-.846.967-4.718 4.718-11.492 7.5-18.63 7.5H89.759v1.21h10.887v10.282H89.758c-6.532 0-11.855-5.322-11.855-11.854 0-6.533 5.323-11.855 11.855-11.855h99.315c7.5 0 14.516-2.904 19.475-7.863l.968-.968a27.517 27.517 0 0 0 6.049-10.887v5.323zm0-13.307c0 3.145-.726 11.25-6.896 18.145-.242.363-.604.605-.846.968-4.718 4.718-11.492 7.5-18.63 7.5H94.96V43.758c3.87-1.814 8.105-2.782 12.58-2.782h78.387c16.331 0 29.638 13.306 29.638 29.637v24.92H192.58c-8.952 0-16.21 7.257-16.21 16.209s7.258 16.21 16.21 16.21h22.984v24.556zm5.08-29.153a3.253 3.253 0 0 1-3.266 3.266h-24.798c-8.226 0-15-6.774-15-15 0-8.226 6.774-15 15-15h24.798a3.253 3.253 0 0 1 3.266 3.266v23.468z" fill="#4E5866"/></g><g transform="translate(185.08 103.032)"><circle fill="#CECECE" cx="8.831" cy="8.71" r="7.742"/><circle fill="#EAEAEA" cx="7.863" cy="7.5" r="6.29"/><path d="M8.83 16.935c-4.596 0-8.346-3.75-8.346-8.346C.484 3.992 4.234.242 8.83.242c4.596 0 8.346 3.75 8.346 8.347 0 4.596-3.75 8.346-8.346 8.346zm0-15.362c-3.87 0-7.136 3.145-7.136 7.137 0 3.992 3.145 7.137 7.137 7.137 3.992 0 7.137-3.145 7.137-7.137 0-3.992-3.145-7.137-7.137-7.137z" fill="#4E5866"/></g></g><g transform="translate(73.79 211.903)"><circle fill="#F98282" cx="37.863" cy="10.887" r="2.782"/><path d="M35.444 12.58l-10.162 4.84" fill="#F4F4F4"/><circle fill="#F98282" cx="21.532" cy="17.298" r="3.629"/><circle fill="#F98282" cx="5.444" cy="4.839" r="3.629"/><circle fill="#FCA7A7" opacity=".55" cx="4.96" cy="3.871" r="3.145"/><path d="M18.387 15.484L7.984 7.016" fill="#F4F4F4"/><circle fill="#FCA7A7" opacity=".55" cx="20.806" cy="16.694" r="2.903"/><circle fill="#FCA7A7" opacity=".55" cx="37.379" cy="10.161" r="2.056"/><path d="M40.403 8.71c-1.21-1.452-3.387-1.573-4.718-.363-1.21.968-1.451 2.54-.846 3.87l-9.073 4.356c-.12-.726-.484-1.331-.968-1.936-1.572-1.814-4.233-2.056-6.048-.484-.242.121-.363.363-.484.484l-9.314-7.5c.967-1.572.846-3.508-.363-4.96C7.016.363 4.355.121 2.54 1.694.726 3.266.484 5.927 2.056 7.742c.726.847 1.815 1.452 2.904 1.452h.363c.967 0 1.935-.363 2.782-.968l.12-.121 9.436 7.62c-.12.364-.363.848-.363 1.331-.12 1.09.242 2.178.968 3.146.847.967 2.057 1.451 3.266 1.451.968 0 1.936-.363 2.783-.968.846-.725 1.33-1.693 1.451-2.782l9.678-4.597c.604.605 1.33.968 2.056.968h.242c.847 0 1.573-.242 2.177-.847.726-.604 1.09-1.451 1.21-2.298.121-.968-.12-1.814-.726-2.42zM7.38 7.137c-.605.484-1.452.726-2.177.726-.847-.121-1.573-.484-2.057-1.089-1.089-1.33-.968-3.266.363-4.355.605-.484 1.33-.725 1.936-.725a2.98 2.98 0 0 1 2.298 1.088c.484.605.726 1.452.726 2.178 0 .967-.484 1.693-1.089 2.177zm16.21 12.58c-.605.485-1.452.727-2.178.727-.846-.121-1.572-.484-2.056-1.09-.484-.604-.726-1.45-.726-2.177.121-.846.484-1.572 1.089-2.056s1.21-.726 1.935-.726h.242c.847.121 1.573.484 2.057 1.089.967 1.21.846 3.145-.363 4.234zm15.726-7.257c-.484.363-.968.605-1.573.484-.605 0-1.089-.363-1.452-.726-.725-.847-.605-2.299.242-3.024.968-.726 2.299-.605 3.024.241.363.484.605.968.484 1.573 0 .605-.363 1.089-.725 1.452z" fill="#4E5866"/></g><g><path d="M89.274 201.742L33.145 227.75c-2.661 1.21-5.806.121-7.016-2.54L1.935 173.073c-1.21-2.662-.12-5.807 2.54-7.017l56.13-26.008c2.661-1.21 5.806-.12 7.016 2.54l24.194 52.138c1.33 2.661.12 5.806-2.54 7.016z" fill="#FFF"/><path d="M30.605 229.08c-.605 0-1.21-.12-1.694-.362-1.21-.484-2.298-1.33-2.782-2.54l-24.92-53.59c-.604-1.209-.604-2.54-.12-3.87.484-1.21 1.33-2.299 2.54-2.783l57.58-26.733c2.541-1.21 5.444-.121 6.654 2.419L92.66 195.21c1.21 2.54.121 5.443-2.42 6.653l-57.58 26.734c-.605.242-1.33.484-2.056.484z" fill="#4E5866"/><path d="M91.935 198.718c-.362.967-1.088 1.814-2.056 2.177l-57.58 26.734c-1.936.968-4.355 0-5.323-1.935l-24.799-53.59c-.483-.967-.483-2.056-.12-3.023a4.244 4.244 0 0 1 2.056-2.299l57.58-26.613c.484-.242 1.09-.363 1.694-.363.484 0 .968.121 1.33.242a4.244 4.244 0 0 1 2.3 2.057l24.798 53.589c.362.967.483 1.935.12 3.024z" fill="#E5E6E7"/><path d="M90.847 197.266c-.363.968-1.089 1.694-2.057 2.178l-56.855 26.008c-1.935.846-4.354 0-5.201-1.936L2.298 171.38c-.483-.968-.483-1.935-.12-3.024.362-.968 1.088-1.694 2.056-2.178l56.855-26.008c.484-.242 1.088-.363 1.693-.363.484 0 .968.121 1.33.242.969.363 1.815 1.09 2.178 2.057l24.436 52.137c.363.968.484 2.056.12 3.024z" fill="#FFF"/><path d="M60.968 139.927l-56.613 26.25c-2.54 1.21-3.63 4.234-2.42 6.775l3.75 8.104 65.807-30.483-3.75-8.105c-1.21-2.662-4.234-3.75-6.774-2.54zm-42.823 28.79c-1.451.727-3.145 0-3.87-1.45-.727-1.452 0-3.146 1.45-3.872 1.452-.726 3.146 0 3.872 1.452.605 1.451 0 3.266-1.452 3.87zm35.444-16.45c-1.452.725-3.145 0-3.871-1.452s0-3.146 1.451-3.871c1.452-.726 3.146 0 3.871 1.451a3.022 3.022 0 0 1-1.451 3.871z" fill="#F98282"/><g fill="#F98282"><path d="M48.629 153.839c.726 1.451 2.42 2.056 3.871 1.451 1.33-.605 1.935-2.056 1.573-3.387-.242.121-.363.363-.605.484-1.452.726-3.145 0-3.871-1.452-.121-.12-.121-.362-.121-.483-1.089.725-1.452 2.177-.847 3.387z"/><path d="M3.266 169.08l56.613-26.25c2.54-1.209 5.565 0 6.653 2.541l2.783 6.048 1.814-.846-3.75-8.105c-1.21-2.54-4.234-3.63-6.653-2.54l-56.613 26.25c-1.815.846-2.903 2.66-2.903 4.596a4.726 4.726 0 0 1 2.056-1.693z"/><path d="M13.185 170.29c.726 1.452 2.42 2.057 3.871 1.452 1.331-.605 1.936-2.057 1.573-3.387-.242.12-.363.363-.605.484-1.451.726-3.145 0-3.87-1.452-.122-.12-.122-.363-.122-.484-1.088.726-1.451 2.178-.847 3.387z"/></g><path d="M1.452 171.258l3.145 7.258 47.42-22.137c5.443-2.54 7.62-9.194 4.717-14.516l-53.71 25.403c-1.572.605-2.298 2.42-1.572 3.992z" fill="#FCA7A7" opacity=".55"/><path d="M67.258 150.815l3.387-1.573c.363-.121.484-.484.242-.847-.12-.363-.484-.484-.847-.242l-3.387 1.573c-.363.12-.484.484-.242.847.121.242.484.362.847.242zM86.976 193.637l3.387-1.572c.363-.121.484-.484.242-.847-.121-.363-.484-.484-.847-.242l-3.387 1.572c-.363.121-.484.484-.242.847.121.242.484.484.847.242zM85.403 194.484c.363-.121.484-.484.242-.847-.12-.363-.484-.484-.847-.242-.363.121-.483.484-.242.847.242.242.605.363.847.242zM69.556 157.589l3.75-1.694c.363-.12.484-.484.242-.847-.12-.363-.483-.483-.846-.242l-3.75 1.694c-.363.121-.484.484-.242.847.242.242.605.363.846.242zM72.702 158.556l1.814-.846c.363-.121.484-.484.242-.847-.12-.363-.484-.484-.847-.242l-1.814.847c-.363.12-.484.484-.242.847.242.241.605.362.847.241zM7.742 184.806l3.75-1.693c.363-.121.484-.484.242-.847-.121-.363-.484-.484-.847-.242l-3.75 1.694c-.363.12-.484.484-.242.847.242.241.605.362.847.241zM8.589 186.742l1.814-.847c.363-.12.484-.484.242-.847-.12-.363-.484-.483-.847-.242l-1.814.847c-.363.121-.484.484-.242.847.242.242.605.363.847.242zM11.976 185.17l1.814-.847c.363-.121.484-.484.242-.847-.12-.363-.484-.484-.847-.242l-1.814.847c-.363.12-.484.484-.242.846.121.242.484.363.847.242zM67.984 148.032l1.693-.726c.363-.12.484-.483.242-.846-.12-.363-.484-.484-.846-.242l-1.694.726c-.363.12-.484.483-.242.846.242.242.605.363.847.242zM2.782 173.677l3.387-1.572c.363-.121.484-.484.242-.847-.12-.363-.484-.484-.846-.242l-3.388 1.573c-.362.12-.483.484-.242.846.242.242.605.363.847.242zM1.815 171.863l1.693-.726c.363-.12.484-.484.242-.847-.121-.363-.484-.484-.847-.242l-1.693.726c-.363.121-.484.484-.242.847.242.242.605.363.847.242z" fill="#4E5866"/><path d="M68.105 142.226c-.605-1.33-1.694-2.42-3.145-2.903-1.452-.484-2.904-.484-4.234.12l-7.258 3.388c-.726-1.452-1.694-2.662-2.662-3.387-1.21-.847-2.298-1.09-3.266-.605-.967.484-1.572 1.451-1.693 2.903-.121 1.33.242 2.782.847 4.234l-28.67 13.306c-.726-1.451-1.693-2.661-2.661-3.387-1.21-.847-2.298-1.089-3.266-.605s-1.573 1.452-1.694 2.904c-.12 1.33.242 2.782.847 4.233l-7.016 3.267c-1.33.604-2.42 1.693-2.903 3.145-.484 1.451-.484 2.903.242 4.234l3.992 8.588 66.653-30.967-4.113-8.468zm-21.29-.484c.12-1.089.483-1.815 1.088-2.057.605-.241 1.452-.12 2.299.484a7.669 7.669 0 0 1 2.419 3.025l-4.96 2.298a6.112 6.112 0 0 1-.846-3.75zm-34.476 14.395c.605-.242 1.451-.12 2.298.484a7.669 7.669 0 0 1 2.42 3.024l-4.96 2.299c-.605-1.331-.847-2.662-.726-3.75 0-.968.363-1.694.968-2.057zm-9.92 16.573c-.484-1.089-.604-2.299-.12-3.508a4.32 4.32 0 0 1 2.298-2.54l7.016-3.267c.605.968 1.21 1.815 1.935 2.42 0 .604 0 1.21.242 1.693.363.847 1.089 1.452 1.936 1.815.363.12.726.242 1.21.242a3.22 3.22 0 0 0 1.451-.363c1.694-.847 2.42-2.783 1.694-4.476-.847-1.694-2.783-2.42-4.476-1.694a3.822 3.822 0 0 0-1.694 1.694c-.484-.484-.846-1.089-1.33-1.694l34.596-16.088c.484.967 1.21 1.693 1.936 2.419-.121.605 0 1.21.242 1.814.363.847 1.089 1.452 1.935 1.815.363.12.726.242 1.21.242a3.22 3.22 0 0 0 1.452-.363c1.693-.847 2.419-2.782 1.693-4.476-.847-1.693-2.782-2.42-4.476-1.693-.725.363-1.33.967-1.572 1.693-.484-.484-.847-1.089-1.33-1.693l13.185-6.049a5.015 5.015 0 0 1 1.935-.363c.484 0 1.089.121 1.573.242a4.171 4.171 0 0 1 2.54 2.42l3.508 7.742-64.839 30-3.75-7.984z" fill="#4E5866"/><path d="M53.347 151.782c-.605.242-1.21.242-1.815.121-.605-.242-1.088-.605-1.33-1.21-.121-.241-.121-.362-.121-.604.604.363 1.088.484 1.693.484.363 0 .726-.121 1.089-.242.726-.363 1.21-1.09 1.452-2.057.12.121.12.242.241.363.484 1.21 0 2.661-1.21 3.145z" fill="#FFF"/><path d="M53.347 147.548c-.121.968-.484 1.573-1.089 1.815s-1.33.12-2.177-.484c.242-.605.604-1.089 1.21-1.33.362-.122.604-.243.967-.243.484 0 .847 0 1.089.242zM17.903 164c-.12.968-.484 1.573-1.088 1.935-.605.242-1.452.121-2.178-.483v-.121c.242-.605.605-1.09 1.21-1.331.363-.121.605-.242.968-.242.362 0 .725 0 1.088.242z" fill="#FFF"/><path d="M17.903 168.234c-.605.242-1.21.242-1.814.12a2.622 2.622 0 0 1-1.33-1.209c-.122-.242-.122-.363-.122-.605.605.242 1.089.484 1.694.484.363 0 .725-.12.967-.242.726-.363 1.331-1.088 1.573-2.056.12.12.242.242.242.363.484 1.21 0 2.661-1.21 3.145z" fill="#FFF"/><g fill="#4E5866"><path d="M41.25 210.089l-3.266-3.63c.484.847.726 1.452.847 1.694l1.21 2.54-.968.484-2.54-5.443 1.572-.726 3.145 3.508-.605-4.718 1.573-.725 2.54 5.443-1.089.484-1.21-2.54c0-.121-.12-.242-.241-.363s-.242-.605-.484-1.33l.605 4.838-1.089.484zM49.718 202.83c.363.847.484 1.694.242 2.42s-.726 1.21-1.573 1.573c-.847.362-1.572.483-2.298.12-.605-.241-1.21-.846-1.573-1.814-.363-.847-.484-1.694-.242-2.42.242-.725.726-1.209 1.573-1.572s1.572-.484 2.177-.12c.847.362 1.33.967 1.694 1.814zm-3.871 1.815c.242.605.605.968.968 1.21.362.242.725.242 1.21 0 .967-.363 1.088-1.21.483-2.42-.605-1.21-1.33-1.572-2.177-1.21-.484.243-.726.485-.847.969 0 .362.12.846.363 1.451zM56.976 202.83l-1.452.726-4.234-3.024.726 1.452 1.21 2.54-.968.484-2.54-5.443 1.451-.726 4.234 2.903-.726-1.452-1.21-2.54.968-.363 2.54 5.444zM61.452 197.387c.363.847.483 1.694.242 2.42-.242.725-.847 1.33-1.815 1.693l-1.573.726-2.54-5.444 1.694-.726c.846-.362 1.693-.483 2.419-.241.726.241 1.21.725 1.573 1.572zm-1.09.605c-.483-1.21-1.33-1.452-2.297-.968l-.605.242 1.572 3.508.484-.242c1.089-.605 1.33-1.451.847-2.54zM67.137 198.113l-.968-1.089-1.935.968.242 1.452-1.21.604-.605-6.29 1.452-.605 4.476 4.476-1.452.484zm-1.693-1.936a34.926 34.926 0 0 0-1.573-1.693c-.121-.121-.242-.242-.242-.363.121.363.242 1.21.363 2.661l1.452-.605zM69.315 193.274l.12-2.782 1.21-.605-.242 4.113.968 2.177-1.089.484-.967-2.056-3.388-2.54 1.21-.605z"/></g><g fill="#4E5866"><path d="M50.08 194.242L34.356 201.5l-1.815-3.871 2.783-7.742c.725-2.298 1.21-3.87 1.451-4.597.242-.846.242-1.451.242-1.935a3.22 3.22 0 0 0-.363-1.452c-.242-.605-.605-.968-1.21-1.088-.483-.121-1.088-.121-1.814.241-.726.363-1.33.847-1.814 1.573s-1.09 1.694-1.573 2.782l-4.96-2.298c.605-1.573 1.21-2.661 1.815-3.387s1.21-1.452 2.056-2.178c.847-.604 1.694-1.21 2.903-1.693 1.452-.605 2.783-.968 4.113-.968 1.331 0 2.54.242 3.508.968 1.09.605 1.815 1.572 2.299 2.661.363.847.605 1.694.726 2.54a8.936 8.936 0 0 1 0 2.54 17.978 17.978 0 0 1-.726 3.025c-.363 1.089-1.21 3.266-2.661 6.532l.12.121 8.226-3.75 2.42 4.718zM59.153 169.444c.605 1.33.726 2.66.363 3.991s-1.21 2.54-2.54 3.75v.121c3.87-1.21 6.411-.362 7.742 2.662.967 2.056.847 3.992-.242 5.806-1.089 1.936-3.024 3.508-5.807 4.839-1.21.484-2.298.968-3.387 1.21-1.088.242-2.298.483-3.629.604l-2.298-4.838c1.21 0 2.298 0 3.387-.242s2.056-.484 2.903-.968c1.33-.605 2.178-1.21 2.54-1.814.363-.605.484-1.331.121-2.057-.241-.605-.604-.968-1.088-1.21-.484-.12-1.089-.242-1.815 0-.726.121-1.693.484-2.782.968l-1.33.605-2.057-4.355 1.33-.605c3.025-1.33 4.113-2.782 3.388-4.355-.242-.604-.726-.846-1.21-.967-.605-.121-1.21.12-1.936.363-1.33.604-2.54 1.814-3.629 3.387l-4.233-2.783a10.505 10.505 0 0 1 2.782-3.266c1.089-.846 2.298-1.693 3.87-2.419 2.3-1.089 4.235-1.452 5.928-1.089 1.694.121 2.903 1.089 3.63 2.662z"/></g></g><g><path d="M249.073 126.621l46.814 21.532c2.54 1.21 3.63 4.234 2.54 6.774l-17.177 37.258c-1.21 2.54-4.234 3.63-6.774 2.54l-16.452-7.62-9.314 5.564c-1.089.605-2.54 0-2.662-1.33l-1.451-10.404-16.815-7.741c-2.54-1.21-3.629-4.234-2.54-6.775l17.177-37.379c1.09-2.54 4.113-3.629 6.654-2.419z" fill="#FFCB78"/><path d="M297.097 149c0 .605-.121 1.33-.484 1.935l-17.178 37.259c-1.21 2.54-4.233 3.629-6.774 2.54l-16.451-7.621-9.315 5.564c-.484.242-.968.363-1.451.121l.362 2.42c.242 1.33 1.573 1.935 2.662 1.33l9.314-5.564 16.452 7.62c2.54 1.21 5.564.122 6.774-2.54l17.177-37.258c1.09-1.935.484-4.354-1.088-5.806z" fill="#FFC166"/><path d="M276.532 195.694c-.847 0-1.572-.121-2.42-.484l-16.088-7.38-9.072 5.444c-.726.363-1.573.484-2.299.121a2.534 2.534 0 0 1-1.33-1.814l-1.452-10.162-16.573-7.62c-1.33-.605-2.419-1.815-2.903-3.146-.484-1.33-.484-3.024.121-4.355l17.178-37.379c.604-1.33 1.814-2.419 3.145-2.903 1.451-.484 3.024-.484 4.355.121l46.814 21.532c2.903 1.331 4.113 4.718 2.782 7.5l-17.177 37.258c-.605 1.331-1.815 2.42-3.145 2.904a5.479 5.479 0 0 1-1.936.363zm-18.629-9.315l16.694 7.742c1.088.484 2.298.605 3.387.12a4.32 4.32 0 0 0 2.54-2.297l17.178-37.259c1.088-2.298 0-4.96-2.178-5.927l-46.814-21.532c-1.089-.484-2.299-.605-3.387-.121-1.09.484-2.057 1.21-2.54 2.298l-17.178 37.38c-.484 1.088-.605 2.298-.121 3.386a4.32 4.32 0 0 0 2.298 2.54l17.178 7.864 1.572 10.766c0 .363.242.726.726.967.363.121.726.121 1.089 0l9.556-5.927z" fill="#9BA4B4"/><path d="M242.782 128.435c-5.564 11.976-11.008 23.952-16.572 35.928 1.935.726 3.75 1.572 5.685 2.298 21.774 9.194 46.936 0 57.702-21.048-13.912-6.532-27.944-12.944-41.855-19.476-.484 0-1.694-.12-3.024.605-.968.605-1.573 1.33-1.936 1.693z" fill="#FFD49C"/><path d="M227.661 173.556c.363.242.847 0 .968-.362l2.42-5.081c.241-.363 0-.847-.364-.968-.362-.242-.846 0-.967.363l-2.42 5.08c-.242.364 0 .727.363.968zM230.323 175.008c.362.242.846 0 .967-.363l.847-1.935c.242-.363 0-.847-.363-.968-.363-.242-.847 0-.968.363l-.846 1.935c-.242.242 0 .726.363.968zM288.387 151.056c.363.242.847 0 .968-.362l1.935-3.992c.242-.363 0-.847-.363-.968-.362-.242-.846 0-.967.363l-1.936 3.992c-.242.242-.12.726.363.967zM292.621 149.968c.363.242.847 0 .968-.363l.846-1.936c.242-.363 0-.846-.362-.967-.363-.242-.847 0-.968.363l-.847 1.935c-.242.363 0 .847.363.968zM272.54 158.798c.363.242.847 0 .968-.363l.847-1.935c.242-.363 0-.847-.363-.968-.363-.242-.847 0-.968.363l-.847 1.936c-.12.363 0 .725.363.967zM275.927 158.92c.363.241.847 0 .968-.364l.242-.604c.242-.363 0-.847-.363-.968-.363-.242-.847 0-.968.363l-.241.605c-.242.363-.121.725.362.967zM249.073 159.282c.362.242.846 0 .967-.363l.847-1.935c.242-.363 0-.847-.363-.968-.363-.242-.847 0-.968.363l-.846 1.936c-.242.241-.121.725.363.967zM252.339 159.403c.363.242.846 0 .967-.363l.242-.605c.242-.362 0-.846-.363-.967-.362-.242-.846 0-.967.363l-.242.604c-.121.242 0 .726.363.968zM290.806 153.96c.363.242.847 0 .968-.363l.847-1.936c.242-.363 0-.846-.363-.967-.363-.242-.847 0-.968.362l-.846 1.936c-.242.363 0 .847.362.968z" fill="#4E5866"/><g fill="#4E5866"><path d="M276.532 195.694c-.847 0-1.572-.121-2.42-.484l-16.088-7.38-9.072 5.444c-.726.363-1.573.484-2.299.121a2.534 2.534 0 0 1-1.33-1.814l-1.452-10.162-16.573-7.62c-1.33-.605-2.419-1.815-2.903-3.146-.484-1.33-.484-3.024.121-4.355l17.178-37.379c.604-1.33 1.814-2.419 3.145-2.903 1.451-.484 3.024-.484 4.355.121l46.814 21.532c1.33.605 2.42 1.815 2.903 3.146.484 1.33.484 3.024-.12 4.354l-17.178 37.258c-.968 2.057-3.024 3.267-5.08 3.267zm-18.629-9.315l16.694 7.742c2.298 1.089 4.96 0 5.927-2.177l17.178-37.259c.483-1.088.604-2.298.12-3.387a4.32 4.32 0 0 0-2.298-2.54l-46.814-21.532c-1.089-.484-2.299-.605-3.387-.121-1.09.484-2.057 1.21-2.54 2.298l-17.178 37.38c-.484 1.088-.605 2.298-.121 3.386a4.32 4.32 0 0 0 2.298 2.54l17.178 7.864 1.572 10.766c0 .363.242.726.726.967.363.121.726.121 1.089 0l9.556-5.927z"/></g><g><path d="M263.589 151.177l-14.516-6.653c-1.09-.484-1.573-1.814-1.09-3.024.485-1.089 1.815-1.573 3.025-1.089l14.516 6.654c1.089.483 1.573 1.814 1.089 3.024-.484 1.088-1.936 1.572-3.024 1.088z" fill="#FFF"/><path d="M264.556 151.903c-.362 0-.846-.12-1.21-.242l-14.515-6.653c-1.452-.605-2.057-2.42-1.452-3.75.605-1.452 2.42-2.056 3.75-1.452l14.516 6.654c1.452.605 2.057 2.419 1.452 3.75-.484 1.088-1.452 1.693-2.54 1.693zm-.725-1.33c.846.362 1.814 0 2.177-.847a1.099 1.099 0 0 0 0-1.21c-.242-.363-.484-.726-.847-.968l-14.516-6.653c-.847-.363-1.814 0-2.177.847s0 1.814.847 2.177l14.516 6.654z" fill="#4E5866"/></g><g><path d="M278.226 169.202l-33.387-15.363c-1.089-.484-1.573-1.815-1.089-3.024.484-1.09 1.815-1.573 3.024-1.09l33.387 15.485c1.089.484 1.573 1.814 1.089 3.024-.484.968-1.815 1.451-3.024.968z" fill="#FFF"/><path d="M279.194 170.048c-.363 0-.847-.12-1.21-.242l-33.387-15.483c-1.452-.605-2.057-2.42-1.452-3.75.605-1.452 2.42-2.057 3.75-1.452l33.387 15.484c1.452.605 2.057 2.42 1.452 3.75-.363 1.089-1.452 1.693-2.54 1.693zm-.726-1.33c.847.363 1.814 0 2.177-.847a1.099 1.099 0 0 0 0-1.21c-.242-.363-.484-.726-.847-.967l-33.387-15.484c-.846-.363-1.814 0-2.177.846-.363.847 0 1.815.847 2.178l33.387 15.484z" fill="#4E5866"/></g><g><path d="M273.992 178.395l-33.387-15.484c-1.089-.484-1.573-1.814-1.089-3.024.484-1.089 1.815-1.572 3.024-1.089l33.387 15.484c1.09.484 1.573 1.815 1.09 3.024-.485 1.09-1.815 1.573-3.025 1.09z" fill="#FFF"/><path d="M274.96 179.121c-.363 0-.847-.121-1.21-.242l-33.387-15.363c-1.452-.605-2.057-2.42-1.452-3.75.605-1.451 2.42-2.056 3.75-1.451l33.387 15.483c.726.363 1.21.847 1.452 1.573s.242 1.452-.121 2.177c-.363.726-.847 1.21-1.573 1.452-.12.121-.483.121-.846.121zm-.726-1.33c.847.362 1.814 0 2.177-.847a1.099 1.099 0 0 0 0-1.21c-.242-.363-.484-.726-.846-.968l-33.388-15.484c-.846-.363-1.814 0-2.177.847a1.099 1.099 0 0 0 0 1.21c.242.363.484.726.847.967l33.387 15.484z" fill="#4E5866"/></g><g><path d="M282.58 159.887l-11.854-5.443c-1.089-.484-1.573-1.815-1.089-3.025.484-1.088 1.815-1.572 3.024-1.088l11.855 5.443c1.089.484 1.573 1.815 1.089 3.024-.605 1.09-1.936 1.573-3.024 1.09z" fill="#FFF"/><path d="M283.548 160.734c-.363 0-.846-.121-1.21-.242l-11.854-5.444c-1.452-.604-2.057-2.419-1.452-3.75.363-.725.847-1.21 1.573-1.451.726-.242 1.451-.242 2.177.12l11.855 5.444c.726.363 1.21.847 1.452 1.573s.242 1.451-.121 2.177c-.363.968-1.33 1.573-2.42 1.573zm-.725-1.452c.846.363 1.814 0 2.177-.847a1.099 1.099 0 0 0 0-1.21c-.121-.362-.484-.725-.847-.967l-11.855-5.443a1.099 1.099 0 0 0-1.21 0c-.362.12-.725.483-.967.846-.363.847 0 1.815.847 2.178l11.855 5.443z" fill="#4E5866"/></g><g><path d="M245.927 124.323l9.436-45.726c.484-2.299 2.661-3.63 4.839-3.266l8.588 1.814c2.299.484 3.63 2.661 3.266 4.839l-9.435 45.726c0 .12-.121.12-.242.12l-16.33-3.386s-.122 0-.122-.121z" fill="#FFD58A"/><path d="M262.379 128.435h-.12l-16.332-3.387c-.362-.12-.725-.483-.604-.967l9.435-45.726c.242-.726.605-1.21.847-1.573a4.517 4.517 0 0 1 1.33-1.33c.605-.363 1.09-.484 1.452-.605.484-.121 1.089-.242 2.057-.242l8.588 1.814c2.54.484 4.234 3.025 3.63 5.565l-9.436 45.726c-.121.484-.484.725-.847.725zm-15.726-4.475l15.484 3.145 9.315-45.363c.363-1.936-.847-3.75-2.783-4.234l-8.588-1.814c-.968-.242-1.815 0-2.662.483-.846.484-1.33 1.331-1.572 2.299l-9.194 45.484z" fill="#9BA4B4"/><path d="M268.427 77.024l-7.62-1.572c-2.42-.484-4.96 1.088-5.444 3.508l-.726 3.508 16.694 3.387.725-3.508c.363-2.42-1.21-4.839-3.629-5.323z" fill="#FFA18C"/><path d="M266.976 85.008l4.234.847-8.589 41.734c0 .12-.121.242-.363.242l-3.992-.847 8.71-41.976zM254.637 82.468l4.234.847-8.71 41.975-4.113-.846s-.12 0-.12-.121l8.71-41.855z" fill="#FFBA3B"/><path d="M254.516 82.468c.968 3.024 1.21 6.411.484 9.677l-2.903 13.307c-1.089 5.08-2.782 10.16-4.96 14.758l-.363.846 7.742-38.588z" fill="#F9C780"/><path d="M262.984 126.742c-.968-3.024-1.21-6.411-.484-9.677l2.903-13.186c1.089-5.08 2.782-10.161 4.96-14.758l.363-.847-7.742 38.468z" fill="#F9A826"/><path d="M245.927 124.565l3.992 16.451c.242 1.089 1.694 1.33 2.299.484l10.04-13.306c.121-.121 0-.242-.12-.363l-16.21-3.266z" fill="#E9E9E9"/><path d="M245.927 124.565l3.992 16.451c.242 1.089 1.694 1.33 2.299.484l2.661-3.629c3.508-4.597.968-11.25-4.718-12.46l-4.234-.846z" fill="#F7F7F7"/><path d="M264.92 77.266c.241 1.452-3.509 3.145-3.993 3.387-1.693.726-5.201 1.694-5.927.484-.726-1.089.968-4.113 3.387-5.202 2.782-1.21 6.29 0 6.532 1.331z" fill="#FCB5A9"/><path d="M259.355 84.04l-4.718 22.863c4.597-.847 8.226-4.355 9.073-8.951l2.54-12.46-6.895-1.452z" fill="#FFDDA6"/><path d="M263.952 88.516c.363.121.846-.12.967-.605l.484-2.298c.121-.363-.12-.847-.605-.968-.363-.12-.846.121-.967.605l-.484 2.298c0 .484.242.847.605.968zM255.847 126.742c.363.12.847-.121.968-.605l.483-2.298c.121-.363-.12-.847-.604-.968-.363-.121-.847.12-.968.605l-.484 2.298c0 .484.242.847.605.968zM249.556 116.702c.363.12.847-.121.968-.605l.484-2.299c.121-.363-.12-.846-.605-.967-.363-.121-.847.12-.968.604l-.483 2.299c0 .484.242.847.604.968zM265.403 104c.363.121.847-.121.968-.605l.484-2.298c.12-.363-.121-.847-.605-.968-.363-.12-.847.121-.968.605l-.484 2.298c-.12.484.121.847.605.968zM260.202 90.935c.363.121.846-.12.967-.604l1.21-5.565c.121-.363-.12-.847-.605-.968-.363-.12-.847.121-.968.605l-1.21 5.565c0 .363.243.847.606.967z" fill="#4E5866"/><path d="M268.548 76.42l-7.62-1.573c-2.783-.605-5.565 1.21-6.17 3.992l-.605 2.903-.12.726-.122.363-8.467 41.25v.242l4.112 16.693c.121.726.726 1.33 1.452 1.452h.363c.605 0 1.21-.242 1.573-.726l10.04-13.307c.12-.12.12-.241.12-.483.122-.121.122-.242.243-.363l8.468-41.25.846-3.992c.484-2.54-1.33-5.323-4.113-5.928zm-12.701 2.66c.484-2.177 2.54-3.507 4.718-3.145l7.62 1.573c2.178.484 3.509 2.54 3.146 4.718l-.605 2.903-4.234-.847-7.016-1.451-4.234-.847.605-2.903zm10.403 6.412l-8.468 40.766-7.016-1.452 8.468-40.766 7.016 1.452zM255 83.194h.242l2.903.604-8.468 40.767-3.024-.605L255 83.194zm-.605 54.556l-4.839-.968-2.782-11.37 14.758 3.023-7.137 9.315zm7.742-10.524l-3.024-.605 8.468-40.766 3.024.605-8.468 40.766z" fill="#4E5866"/><path d="M255.363 79.202l3.629.725c.363.121.605-.12.726-.483.12-.363-.121-.605-.484-.726l-3.63-.726c-.362-.121-.604.12-.725.484 0 .363.121.726.484.726zM267.58 83.92l3.63.725c.363.121.605-.12.725-.484.121-.363-.12-.605-.483-.726l-3.63-.725c-.362-.121-.604.12-.725.484-.121.362.12.725.484.725z" fill="#4E5866"/></g></g><path d="M112.621 45.452c.363 1.814-6.895 4.354-7.621 4.717-2.54.847-5.806 2.057-7.137.605-.968-.968-.726-3.145.242-4.476 2.903-4.596 14.032-3.024 14.516-.846z" fill="#FCDDB9"/><path d="M191.492 110.774a1.91 1.91 0 0 1-1.936-1.935 1.91 1.91 0 0 1 1.936-1.936h.12a1.91 1.91 0 0 1 1.936 1.936c-.12 1.088-.967 1.935-2.056 1.935z" fill="#FFF"/></g></svg>